<svg width="25" height="25" viewBox="0 0 25 25" fill="none" xmlns="http://www.w3.org/2000/svg">
<g filter="url(#filter0_d_96182_12)">
<path d="M12.5 0C5.59815 0 0 5.59815 0 12.5C0 19.4018 5.59815 25 12.5 25C19.4018 25 25 19.4018 25 12.5C25 5.59815 19.4018 0 12.5 0ZM17.2546 6.36502H15.5163C14.1615 6.36502 13.9059 7.00408 13.9059 7.94989V10.0204H17.1268V13.2924H13.9059V21.6769H10.5572V13.2924H7.74539V10.046H10.5572V7.64314C10.5572 4.85685 12.2699 3.3231 14.7495 3.3231H17.2801L17.2546 6.36502Z" fill="#999999"/>
</g>
<defs>
<filter id="filter0_d_96182_12" x="-4" y="0" width="33" height="33" filterUnits="userSpaceOnUse" color-interpolation-filters="sRGB">
<feFlood flood-opacity="0" result="BackgroundImageFix"/>
<feColorMatrix in="SourceAlpha" type="matrix" values="0 0 0 0 0 0 0 0 0 0 0 0 0 0 0 0 0 0 127 0" result="hardAlpha"/>
<feOffset dy="4"/>
<feGaussianBlur stdDeviation="2"/>
<feComposite in2="hardAlpha" operator="out"/>
<feColorMatrix type="matrix" values="0 0 0 0 0 0 0 0 0 0 0 0 0 0 0 0 0 0 0.25 0"/>
<feBlend mode="normal" in2="BackgroundImageFix" result="effect1_dropShadow_96182_12"/>
<feBlend mode="normal" in="SourceGraphic" in2="effect1_dropShadow_96182_12" result="shape"/>
</filter>
</defs>
</svg>
